<?xml version="1.0"?>
<svg xmlns="http://www.w3.org/2000/svg" xmlns:xlink="http://www.w3.org/1999/xlink" xmlns:svgjs="http://svgjs.com/svgjs" version="1.1" width="512" height="512" x="0" y="0" viewBox="0 0 64 64" style="enable-background:new 0 0 512 512" xml:space="preserve" class=""><g><g xmlns="http://www.w3.org/2000/svg" id="floor_mop-mop-cleaning-housework-housekeeping" data-name="floor mop-mop-cleaning-housework-housekeeping"><path d="m18 26a3 3 0 1 0 -3-3 3 3 0 0 0 3 3zm0-4a1 1 0 1 1 -1 1 1 1 0 0 1 1-1z" fill="#ffffff" data-original="#000000" style="" class=""/><path d="m28 29a3 3 0 1 0 -3 3 3 3 0 0 0 3-3zm-3 1a1 1 0 1 1 1-1 1 1 0 0 1 -1 1z" fill="#ffffff" data-original="#000000" style="" class=""/><path d="m56 46h2v2h-2z" fill="#ffffff" data-original="#000000" style="" class=""/><path d="m42 46h12v2h-12z" fill="#ffffff" data-original="#000000" style="" class=""/><path d="m48 42h14v2h-14z" fill="#ffffff" data-original="#000000" style="" class=""/><path d="m46 38h14v2h-14z" fill="#ffffff" data-original="#000000" style="" class=""/><path d="m49.59 24.5 1.74 1 10.77-18.65a3.006 3.006 0 0 0 -1.11-4.1 3.07 3.07 0 0 0 -4.09 1.1l-23.43 40.58a3 3 0 0 0 -1.47 2.57v1a2.006 2.006 0 0 0 -2 2v2h-3.5l.39-3.82c.03-.02.07-.03.1-.05a14.7 14.7 0 0 0 2.91-2.23 13.936 13.936 0 0 0 4.1-9.9 2.006 2.006 0 0 0 -2-2h-2a2.006 2.006 0 0 0 -2-2h-8a4 4 0 0 0 -4-4 4.748 4.748 0 0 0 -.53.05 3.986 3.986 0 0 0 -7.47 1.95 3.906 3.906 0 0 0 .56 2h-.56a2.006 2.006 0 0 0 -2 2h-2a2.006 2.006 0 0 0 -2 2 14.017 14.017 0 0 0 13 13.96v.04a2.006 2.006 0 0 0 2 2h2a2.006 2.006 0 0 0 2-2v-.04a13.863 13.863 0 0 0 3.78-.81l-.29 2.85h-1.49a2.98 2.98 0 0 0 -2.82 4h-8.27l-.51-5.1-1.99.2.49 4.9h-5.9a2.006 2.006 0 0 0 -2 2v2a2.006 2.006 0 0 0 2 2h56a2.006 2.006 0 0 0 2-2v-2a2.006 2.006 0 0 0 -2-2h-10.18a2.98 2.98 0 0 0 -2.82-4h-7v-2a2 2 0 0 0 -1.68-1.97l11.85-20.53-1.73-1-10.91 18.9a3.019 3.019 0 0 0 -1.59-1.24l22.7-39.31a1 1 0 0 1 1.36-.36.985.985 0 0 1 .36 1.36zm-19.59 11.5h2a11.915 11.915 0 0 1 -3.52 8.48 12.3 12.3 0 0 1 -1.34 1.15l.77-7.63h.09a2.006 2.006 0 0 0 2-2zm-10-2h8v2h-8zm-6-2a2 2 0 0 1 4 0v5a1 1 0 0 1 -1 1 1 1 0 0 0 -1 1v2a1.011 1.011 0 0 1 -.35.76 1.026 1.026 0 0 1 -.83.23 1.093 1.093 0 0 1 -.82-1.1zm-2-4a1.975 1.975 0 0 1 1.6.82 4 4 0 0 0 -1.6 3.18 2 2 0 0 1 0-4zm-4 6h4v2h-4zm11 16h-2v-2h2zm1.99-2.07a1.99 1.99 0 0 0 -1.99-1.93h-2a1.99 1.99 0 0 0 -1.99 1.93 11.692 11.692 0 0 1 -5-1.54 12 12 0 0 1 -6.01-10.39h2a2.006 2.006 0 0 0 2 2h.1l.61 6.08 1.99-.2-.59-5.88h1.89v2.89a3.086 3.086 0 0 0 2.5 3.07 2.81 2.81 0 0 0 .5.04 2.993 2.993 0 0 0 1.94-.71 3.029 3.029 0 0 0 1.06-2.29v-1.17a3 3 0 0 0 1.82-1.83h6.07l-.88 8.88a11.893 11.893 0 0 1 -4.02 1.05zm39.01 10.07v2h-56v-2zm-13-4a1 1 0 0 1 0 2h-24a1 1 0 0 1 0-2zm-9-4v2h-6v-2zm-2-3v1h-2v-1a1 1 0 0 1 2 0z" fill="#ffffff" data-original="#000000" style="" class=""/></g></g></svg>
